# xmcd
#
# Track frame offsets:
#	150
#	22147
#	40660
#	58810
#	75997
#	91795
#	116655
#	137585
#	153782
#	171290
#	183905
#
# Disc length: 2672 seconds
#
# Revision: 1
# Processed by: cddbd v1.5.2PL0 Copyright (c) Steve Scherf et al.
# Submitted via: audiograbber 1.83.01
#
DISCID=800a6e0b
DTITLE=Thousand Dollar Playboys, The - Stay!
DYEAR=2001
DGENRE=Country Rock
TTITLE0=Lonesome Town
TTITLE1=Lay You Down
TTITLE2=A Very Special Christmas
TTITLE3=Stay
TTITLE4=As The Desperation Comes
TTITLE5=Take Me Away
TTITLE6=Borrowed Money Blues
TTITLE7=Got To Keep Moving
TTITLE8=The Mirror
TTITLE9=The Playboy's Theme
TTITLE10=Something Fine
EXTD=
EXTT0=
EXTT1=
EXTT2=
EXTT3=
EXTT4=
EXTT5=
EXTT6=
EXTT7=
EXTT8=
EXTT9=
EXTT10=
PLAYORDER=
